<svg width="63" height="62" viewBox="0 0 63 62" fill="none" xmlns="http://www.w3.org/2000/svg">
<rect x="0.501953" width="62.2252" height="62" rx="31" fill="#FFF8F8"/>
<g clip-path="url(#clip0)">
<path d="M48.3107 21.2985C47.0427 19.7967 44.7017 19.1841 40.2308 19.1841H24.0015C19.4283 19.1841 17.0476 19.8362 15.7843 21.4351C14.5527 22.9941 14.5527 25.2911 14.5527 28.4703V34.5297C14.5527 40.6886 16.014 43.8157 24.0015 43.8157H40.2309C44.108 43.8157 46.2564 43.2751 47.6463 41.9498C49.0717 40.5906 49.6799 38.3715 49.6799 34.5297V28.4703C49.6799 25.1176 49.5846 22.807 48.3107 21.2985ZM37.1045 32.3365L29.7348 36.1742C29.57 36.26 29.3899 36.3026 29.2099 36.3026C29.0062 36.3026 28.8029 36.2479 28.6228 36.1393C28.2838 35.9346 28.0768 35.5685 28.0768 35.1735V27.5228C28.0768 27.1285 28.2832 26.7627 28.6216 26.5579C28.9601 26.3531 29.381 26.3391 29.7322 26.5209L37.1019 30.3338C37.4768 30.5278 37.7123 30.9135 37.7128 31.3343C37.7133 31.7554 37.4788 32.1416 37.1045 32.3365Z" fill="black"/>
</g>
<defs>
<clipPath id="clip0">
<rect x="14.5527" y="14" width="35.1271" height="35" fill="white"/>
</clipPath>
</defs>
</svg>
