<svg width="53" height="52" viewBox="0 0 53 52" fill="none" xmlns="http://www.w3.org/2000/svg">
<rect x="0.735352" width="51.7481" height="51.7481" rx="25.874" fill="#FFCC00"/>
<path d="M16.9346 24.0258C18.012 24.0258 18.876 24.3458 19.5266 24.9858C20.188 25.6258 20.5186 26.5911 20.5186 27.8818V32.8418H17.4786V28.3778C17.4786 27.1938 17.004 26.6018 16.0546 26.6018C15.532 26.6018 15.1106 26.7725 14.7906 27.1138C14.4813 27.4551 14.3266 27.9671 14.3266 28.6498V32.8418H11.2866V20.9698H14.3266V24.9698C14.6573 24.6605 15.0466 24.4258 15.4946 24.2658C15.9426 24.1058 16.4226 24.0258 16.9346 24.0258ZM27.6913 21.6418C28.7046 21.6418 29.5846 21.8125 30.3313 22.1538C31.0779 22.4845 31.6539 22.9645 32.0593 23.5938C32.4646 24.2125 32.6673 24.9431 32.6673 25.7858C32.6673 26.6285 32.4646 27.3591 32.0593 27.9778C31.6539 28.5965 31.0779 29.0765 30.3313 29.4178C29.5846 29.7485 28.7046 29.9138 27.6913 29.9138H25.7393V32.8418H22.5713V21.6418H27.6913ZM27.4993 27.4178C28.1499 27.4178 28.6406 27.2791 28.9713 27.0018C29.3019 26.7138 29.4673 26.3085 29.4673 25.7858C29.4673 25.2631 29.3019 24.8578 28.9713 24.5698C28.6406 24.2818 28.1499 24.1378 27.4993 24.1378H25.7393V27.4178H27.4993ZM37.6858 24.0258C39.1258 24.0258 40.2244 24.3565 40.9818 25.0178C41.7391 25.6685 42.1178 26.6711 42.1178 28.0258V32.8418H39.2858V31.7218C38.8484 32.5645 37.9951 32.9858 36.7258 32.9858C36.0538 32.9858 35.4724 32.8685 34.9818 32.6338C34.4911 32.3991 34.1178 32.0845 33.8618 31.6898C33.6164 31.2845 33.4938 30.8258 33.4938 30.3138C33.4938 29.4925 33.8084 28.8578 34.4378 28.4098C35.0671 27.9511 36.0378 27.7218 37.3498 27.7218H39.0778C39.0244 26.8045 38.4111 26.3458 37.2378 26.3458C36.8218 26.3458 36.4004 26.4151 35.9738 26.5538C35.5471 26.6818 35.1844 26.8631 34.8858 27.0978L33.8618 25.0338C34.3418 24.7138 34.9231 24.4685 35.6058 24.2978C36.2991 24.1165 36.9924 24.0258 37.6858 24.0258ZM37.5738 31.0658C37.9258 31.0658 38.2351 30.9805 38.5018 30.8098C38.7684 30.6391 38.9604 30.3885 39.0778 30.0578V29.3058H37.7658C36.8804 29.3058 36.4378 29.5991 36.4378 30.1858C36.4378 30.4525 36.5391 30.6658 36.7418 30.8258C36.9444 30.9858 37.2218 31.0658 37.5738 31.0658Z" fill="white"/>
</svg>
