<svg width="53" height="53" viewBox="0 0 53 53" fill="none" xmlns="http://www.w3.org/2000/svg">
<rect x="0.735352" y="0.533203" width="51.7481" height="51.7481" rx="25.874" fill="#FFCC00"/>
<g clip-path="url(#clip0)">
<path d="M40.884 31.2512H14.6389C14.2143 31.2512 13.867 31.6723 13.867 32.1869V33.1226C13.867 33.6372 14.2143 34.0582 14.6389 34.0582H40.884C41.3085 34.0582 41.6559 33.6372 41.6559 33.1226V32.1869C41.6559 31.6723 41.3085 31.2512 40.884 31.2512ZM17.7265 36.8652H11.5512C11.1267 36.8652 10.7793 37.2862 10.7793 37.8008V38.7365C10.7793 39.2511 11.1267 39.6721 11.5512 39.6721H17.7265C18.1511 39.6721 18.4984 39.2511 18.4984 38.7365V37.8008C18.4984 37.2862 18.1511 36.8652 17.7265 36.8652ZM37.7963 36.8652H21.5861C21.1616 36.8652 20.8142 37.2862 20.8142 37.8008V38.7365C20.8142 39.2511 21.1616 39.6721 21.5861 39.6721H37.7963C38.2209 39.6721 38.5682 39.2511 38.5682 38.7365V37.8008C38.5682 37.2862 38.2209 36.8652 37.7963 36.8652ZM17.7265 26.573H25.2575C26.343 27.725 27.7469 28.4443 29.3053 28.4443C30.8636 28.4443 32.2626 27.725 33.353 26.573H36.2525C39.2388 26.573 41.6559 23.6432 41.6559 20.0234C41.6559 16.4036 39.2388 13.4738 36.2525 13.4738C35.3841 13.4738 34.5784 13.7428 33.8547 14.1814C32.6824 11.544 30.4052 9.7312 27.7614 9.7312C25.7834 9.7312 24.008 10.7429 22.744 12.351C21.48 10.7429 19.7046 9.7312 17.7265 9.7312C13.8911 9.7312 10.7793 13.5031 10.7793 18.1521C10.7793 22.8011 13.8911 26.573 17.7265 26.573Z" fill="white"/>
</g>
<defs>
<clipPath id="clip0">
<rect x="10.7793" y="9.7312" width="30.8766" height="29.9409" fill="white"/>
</clipPath>
</defs>
</svg>
