<?xml version="1.0" encoding="UTF-8"?>
<!DOCTYPE svg PUBLIC "-//W3C//DTD SVG 1.1//EN" "http://www.w3.org/Graphics/SVG/1.1/DTD/svg11.dtd">
<!-- Creator: CorelDRAW 2019 (64-Bit) -->
<svg xmlns="http://www.w3.org/2000/svg" xml:space="preserve" width="176.424mm" height="73.0221mm" version="1.1" style="shape-rendering:geometricPrecision; text-rendering:geometricPrecision; image-rendering:optimizeQuality; fill-rule:evenodd; clip-rule:evenodd"
viewBox="0 0 17460.26 7226.83"
 xmlns:xlink="http://www.w3.org/1999/xlink"
 xmlns:xodm="http://www.corel.com/coreldraw/odm/2003">
 <defs>
  <style type="text/css">
   <![CDATA[
    .fil2 {fill:black}
    .fil0 {fill:#00000B}
    .fil1 {fill:#FDCB00}
    .fil3 {fill:#2B2A29;fill-rule:nonzero}
   ]]>
  </style>
 </defs>
 <g id="Warstwa_x0020_1">
  <metadata id="CorelCorpID_0Corel-Layer"/>
  <path class="fil0" d="M4843.66 6205.61l-13.77 56.06 -1236.24 -403.03c-870.2,-172.66 -1918.31,-135.06 -2708.73,341.85 -330.4,199.35 -676.92,453.9 -884.93,764.53 245.84,0 378.24,-79.5 520.5,-186.41 150.29,-112.94 251.82,-221.84 389.52,-343.59 340.45,-301.02 409.64,-300.65 762.35,-337.28 91.06,-9.46 190.19,-47.19 301.81,-64.73 907.48,-142.64 1817.3,146.27 2514.25,344.69 203.49,57.94 372.15,99.25 574.13,158.96 792.16,234.17 1000.66,269.18 1928.05,271.29 1066.08,2.42 2331.69,-392.75 2539.61,-392.75 -90.63,389.02 -13.08,569.46 475.9,702.29 352.43,95.73 549.78,73.11 860.24,82.31 134.68,3.99 160.16,27.04 313.33,27.04 -38.15,-56.97 -50.52,-60.11 -98.14,-111.33 -279.54,-300.71 -385.76,-461.18 -744.78,-721.41l-73.45 -57.45c902,0 1813.59,296.59 2664,477.83 285.84,60.92 556.55,110.31 888.89,158.4 1002.21,145 1683.08,-163.96 2085.25,-967.56 118.47,-236.73 200.43,-504.54 200.43,-849.43 -143.35,-36.78 -211.86,-89.79 -314.18,-144.91 55.59,196.74 176.86,377.33 69.98,688.75 -74.72,217.75 -168,380 -311.42,526.4 -429.38,438.3 -1288.75,676.43 -1916.14,513.93 -1031.24,-267.12 -1710.35,-422.67 -2775.5,-575.79 -127.03,-18.26 -284.49,-15.6 -389,-29.91 -633.81,-86.79 -1202.89,161.97 -1810.38,269.87 -243.15,43.19 -490.77,87.91 -726.21,111.62 -340.43,34.27 -878.33,78.94 -1181.25,37.43 -133.01,-18.23 -271.02,3.44 -404.68,-14.23l-740.17 -97.65c27.14,-23.59 -5,-1.48 45.62,-33.16l163.83 -97.88 759.28 -654.41c-381.57,-88.89 -1992.83,-131.18 -1728.01,549.69z"/>
  <path class="fil1" d="M12488.78 5315.56c0,731.64 161.1,1108.71 874.64,639.01 194.68,-128.15 278.79,-156.74 382.83,-376.44 112.13,-236.82 50.54,-513.41 62.87,-618.25 71.64,-609.3 -840.24,-473.36 -1201.24,55.88 -39.77,58.3 -119.1,220.23 -119.1,299.81z"/>
  <path class="fil1" d="M15787.7 5020.87c102.32,55.12 170.83,108.13 314.18,144.91 349.51,97.91 891.57,116.5 865.81,-416.16 -12.89,-266.32 -268.05,-663.73 -525.7,-811.56 -255.76,-146.75 -968.79,-95.12 -1037.32,140.52 -58.64,201.62 39.61,414.26 103.55,531.43 43.51,79.71 80.3,141.12 123.28,217.06 43.37,76.62 85.8,129.92 156.19,193.8z"/>
  <path class="fil1" d="M12122.24 759.9c0,807.18 404.38,1099.64 1125.82,1099.64 438.21,0 247.98,-971.31 -5.64,-1224.9 -72.24,-72.24 -222.73,-157.01 -331.07,-192.57l-396.39 -127.25c-225.16,0 -392.72,217.98 -392.72,445.09z"/>
  <path class="fil1" d="M15656.79 3223.88c0,286.47 679.86,549.82 837.82,549.82 476.23,0 452.67,-99.38 759.43,-314.02 587.74,-411.23 -218.3,-942.7 -707.07,-942.7 -254.76,0 -411.43,108.12 -543.51,241.95 -101.88,103.23 -346.67,294.12 -346.67,464.96z"/>
  <path class="fil1" d="M14007.33 916.37c0,178.21 250.76,837.82 497.45,837.82 206.24,0 395.49,-195.29 493.81,-317.83 229.01,-285.38 291.65,-286.78 291.65,-677.09 0,-145.29 -120.05,-759.28 -445.09,-759.28 -452.36,0 -837.82,597.06 -837.82,916.37z"/>
  <path class="fil1" d="M14216.79 5132.28c0,322.84 17.06,589.16 294.34,805.29 113.13,88.18 489.59,268.17 674.39,268.17 340.05,0 288.01,-692.79 288.01,-890.19 0,-462.53 -720.19,-785.46 -785.46,-785.46 -161.36,0 -286.22,44.12 -376.3,199.71 -65.17,112.56 -94.98,235.71 -94.98,402.47z"/>
  <path class="fil1" d="M15342.61 1990.46c0,402.1 970.85,362.03 1277.36,72.99 112.87,-106.43 345.92,-563.75 345.92,-675.18 0,-529.74 -949.5,-546.27 -1342.56,-138.19 -114.2,118.56 -120.53,165.69 -172.74,324.72 -36.93,112.54 -107.98,282.85 -107.98,415.65z"/>
  <path class="fil2" d="M14138.24 2173.73c110.26,0 324.67,49.86 412.39,85.07 117.95,47.36 216.68,114.02 301.77,195.68 942.64,904.61 -430.22,2233.05 -1401.69,1375.5 -452.58,-399.51 -418.48,-1315.82 362.45,-1588.6 65.35,-22.82 256.71,-67.65 325.08,-67.65zm-1204.37 942.55c0,930.02 1072.33,1647.75 2054.15,875.96 497.75,-391.27 506.29,-1264.97 21.01,-1694.39 -826.27,-731.18 -2075.16,-165.39 -2075.16,818.42z"/>
  <path class="fil1" d="M12553.18 2236.9c-525.98,-612.27 -1023.3,-570.61 -1570.53,-100.5 -332.4,285.55 444.82,898.37 802.46,925.46 101.87,7.73 271.26,-26.03 376.61,-69.65l383.59 -161.77c170.8,-146.72 155.86,-421.26 7.87,-593.53z"/>
  <path class="fil1" d="M11372.94 3819.9c-315.35,660.18 -332.5,1069.86 513.8,953.58 230.9,-31.73 319.12,-21.27 507.69,-174.68 203.25,-165.36 266.9,-441.48 323.21,-530.77 327.28,-518.92 -554.15,-789.29 -1108.01,-467.34 -61,35.47 -202.39,147.39 -236.69,219.2z"/>
  <polygon class="fil3" points="2117.66,4284.99 1911.42,4284.99 2577.11,874.16 3840.03,3799.71 5140.37,874.16 5790.92,4284.99 5577.52,4284.99 5059.14,1543.54 3833.65,4323.51 2646.4,1577.44 "/>
  <path id="1" class="fil3" d="M6400.09 2935.44l1719.19 0c-43,-224.15 -145.73,-408.25 -307.37,-553.83 -162.44,-145.58 -347.18,-217.99 -555.8,-217.99 -207.04,0 -390.98,72.4 -551.83,217.99 -160.84,145.58 -261.98,329.68 -304.18,553.83zm1931 203.36l-1963.65 0c0,271.14 86.8,501.46 261.19,690.94 174.38,189.49 380.63,284.24 617.93,284.24 157.66,0 311.34,-40.82 462.63,-122.47 150.49,-82.42 265.96,-191.8 344.78,-329.68l184.74 101.68c-95.54,162.52 -234.9,295.01 -420.43,399.01 -184.74,103.21 -375.06,154.83 -571.73,154.83 -197.49,0 -379.04,-53.15 -544.66,-160.22 -165.63,-106.3 -297.82,-250.35 -396.56,-431.36 -98.73,-181.02 -148.1,-376.67 -148.1,-586.96 0,-209.51 47.76,-404.4 143.33,-584.64 95.55,-181.02 226.93,-325.07 393.36,-432.13 167.23,-107.85 349.58,-161.76 547.05,-161.76 186.34,0 359.93,48.52 520.77,145.58 160.05,97.06 290.65,228.01 390.19,392.08 99.53,164.07 157.66,343.55 174.38,539.2l4.78 101.68z"/>
  <polygon id="2" class="fil3" points="9213.36,4284.99 9003.15,4284.99 9003.15,2200.6 8795.31,2200.6 8795.31,1997.24 9003.15,1997.24 9003.15,1461.12 9213.36,1461.12 9213.36,1997.24 9866.32,1997.24 9796.25,2200.6 9213.36,2200.6 "/>
  <path id="3" class="fil3" d="M10430.89 2935.44l1719.19 0c-43,-224.15 -145.73,-408.25 -307.37,-553.83 -162.44,-145.58 -347.17,-217.99 -555.8,-217.99 -207.04,0 -390.98,72.4 -551.82,217.99 -160.85,145.58 -261.99,329.68 -304.19,553.83zm1931 203.36l-1963.64 0c0,271.14 86.79,501.46 261.18,690.94 174.39,189.49 380.63,284.24 617.93,284.24 157.66,0 311.34,-40.82 462.63,-122.47 150.5,-82.42 265.97,-191.8 344.79,-329.68l184.73 101.68c-95.54,162.52 -234.9,295.01 -420.43,399.01 -184.73,103.21 -375.05,154.83 -571.73,154.83 -197.49,0 -379.04,-53.15 -544.66,-160.22 -165.63,-106.3 -297.82,-250.35 -396.55,-431.36 -98.74,-181.02 -148.11,-376.67 -148.11,-586.96 0,-209.51 47.77,-404.4 143.33,-584.64 95.55,-181.02 226.94,-325.07 393.37,-432.13 167.22,-107.85 349.57,-161.76 547.04,-161.76 186.34,0 359.93,48.52 520.78,145.58 160.05,97.06 290.64,228.01 390.18,392.08 99.53,164.07 157.66,343.55 174.38,539.2l4.78 101.68z"/>
  <path id="4" class="fil3" d="M14144.77 1960.26c164.83,0 322.5,30.81 472.99,92.44 150.5,61.62 280.3,144.81 390.19,250.34 109.88,104.76 196.68,230.32 261.18,375.9 64.5,145.59 96.35,298.1 96.35,457.55 0,160.99 -31.85,314.28 -96.35,460.64 -64.5,146.35 -151.29,271.14 -261.18,375.9 -109.89,104.76 -239.69,187.95 -390.19,250.34 -150.49,62.4 -308.16,93.98 -472.99,93.98 -334.43,0 -619.51,-114.77 -856,-345.09 -236.5,-230.32 -355.15,-509.16 -355.15,-835.76 0,-213.36 54.15,-410.56 162.44,-591.57 108.29,-181.02 254.81,-323.53 441.14,-428.28 185.54,-103.99 388.59,-156.37 607.57,-156.37zm-1000.93 1176.22c0,268.84 97.94,499.15 294.63,690.18 195.89,191.8 433.18,287.31 711.08,287.31 277.9,0 515.19,-95.51 711.08,-287.31 196.68,-191.03 294.63,-421.35 294.63,-690.18 0,-267.28 -97.95,-496.06 -294.63,-687.09 -195.9,-190.26 -433.18,-285.77 -711.08,-285.77 -277.9,0 -515.2,95.51 -711.08,285.77 -196.69,191.04 -294.63,419.81 -294.63,687.09z"/>
 </g>
</svg>
