<svg width="52" height="52" viewBox="0 0 52 52" fill="none" xmlns="http://www.w3.org/2000/svg">
<rect x="0.0351562" width="51.9315" height="51.9315" rx="25.9658" fill="#FFCC00"/>
<g clip-path="url(#clip0)">
<path d="M20.9849 34.5555C20.9849 37.285 23.2307 39.4978 26.001 39.4978C28.7713 39.4978 31.0171 37.285 31.0171 34.5555C31.0171 32.7264 30.0079 31.1306 28.5091 30.2759V22.1996C28.5091 20.8348 27.3862 19.7284 26.001 19.7284C24.6158 19.7284 23.4929 20.8348 23.4929 22.1996V30.2759C21.9941 31.1306 20.9849 32.7264 20.9849 34.5555ZM18.4768 28.0182C16.9162 29.7606 15.9688 32.0488 15.9688 34.5555C15.9688 40.0149 20.46 44.4402 26.001 44.4402C26.0244 44.4402 26.0487 44.4401 26.0722 44.4399C31.5823 44.4022 36.0612 39.933 36.0331 34.504C36.0202 32.0175 35.0751 29.7486 33.5252 28.0182V12.3149C33.5252 8.22054 30.1565 4.90137 26.001 4.90137C21.8455 4.90137 18.4768 8.22054 18.4768 12.3149V28.0182ZM19.7309 34.5555C19.7309 31.9037 21.249 30.5251 22.2389 29.4199V12.3149C22.2389 10.271 23.9266 8.60813 26.001 8.60813C28.0754 8.60813 29.7631 10.271 29.7631 12.3149V29.4199C30.761 30.5341 32.2574 31.8988 32.2711 34.5229C32.2886 37.9112 29.4837 40.7098 26.0461 40.7332L26.001 40.7334C22.5436 40.7334 19.7309 37.962 19.7309 34.5555Z" fill="white"/>
</g>
<defs>
<clipPath id="clip0">
<rect width="20.0645" height="39.5388" transform="matrix(-1 0 0 1 36.0332 4.90137)" fill="white"/>
</clipPath>
</defs>
</svg>
