<svg width="52" height="57" viewBox="0 0 52 57" fill="none" xmlns="http://www.w3.org/2000/svg">
<rect x="0.0351562" y="4.12793" width="51.9315" height="51.9315" rx="25.9658" fill="#FFCC00"/>
<path d="M27.963 15.0733C27.5055 13.4071 25.1143 13.3296 24.5958 15.0733C21.901 24.2068 16.1387 26.6887 16.1387 33.126C16.1387 38.8252 20.6743 43.4365 26.2794 43.4365C31.8844 43.4365 36.4201 38.8252 36.4201 33.126C36.4201 26.6563 30.6704 24.2485 27.963 15.0733ZM26.2794 39.7312C22.7215 39.7312 19.8262 36.822 19.8262 33.247C19.8262 32.7352 20.2387 32.3207 20.7481 32.3207C21.2574 32.3207 21.67 32.7352 21.67 33.247C21.67 35.8008 23.7379 37.8786 26.2794 37.8786C26.7887 37.8786 27.2013 38.2931 27.2013 38.8049C27.2013 39.3167 26.7887 39.7312 26.2794 39.7312Z" fill="white"/>
</svg>
