<svg width="63" height="62" viewBox="0 0 63 62" fill="none" xmlns="http://www.w3.org/2000/svg">
<rect x="0.168945" width="62.2252" height="62" rx="31" fill="#FFF8F8"/>
<path d="M41.3158 11.0083L36.1099 11C30.2612 11 26.4816 14.8638 26.4816 20.8441V25.3828H21.2473C20.795 25.3828 20.4287 25.7482 20.4287 26.1989V32.775C20.4287 33.2257 20.7954 33.5906 21.2473 33.5906H26.4816V50.1844C26.4816 50.6351 26.8478 51 27.3002 51H34.1294C34.5817 51 34.948 50.6346 34.948 50.1844V33.5906H41.0681C41.5204 33.5906 41.8867 33.2257 41.8867 32.775L41.8892 26.1989C41.8892 25.9825 41.8027 25.7752 41.6494 25.6221C41.4962 25.469 41.2874 25.3828 41.0702 25.3828H34.948V21.5353C34.948 19.686 35.3903 18.7472 37.808 18.7472L41.3149 18.7459C41.7668 18.7459 42.1331 18.3805 42.1331 17.9303V11.8239C42.1331 11.3741 41.7672 11.0092 41.3158 11.0083Z" fill="black"/>
</svg>
